<svg width="1024" height="1024" viewBox="0 0 1024 1024"
  xmlns="http://www.w3.org/2000/svg" class="icon">
  <path transform="rotate(90 511.99999999999994,512.0000000000001)" id="svg_1" d="m128,512q0,-27 18.5,-45.5t45.5,-18.5t45.5,18.5t18.5,45.5t-18.5,45.5t-45.5,18.5t-45.5,-18.5t-18.5,-45.5zm320,0q0,-27 18.5,-45.5t45.5,-18.5t45.5,18.5t18.5,45.5t-18.5,45.5t-45.5,18.5t-45.5,-18.5t-18.5,-45.5zm320,0q0,-27 18.5,-45.5t45.5,-18.5t45.5,18.5t18.5,45.5t-18.5,45.5t-45.5,18.5t-45.5,-18.5t-18.5,-45.5z"/>
</svg>